<svg version="1.1" id="Layer_1" xmlns="http://www.w3.org/2000/svg" xmlns:xlink="http://www.w3.org/1999/xlink" x="0px" y="0px"
	 width="100%" viewBox="0 0 501 501" enable-background="new 0 0 501 501" xml:space="preserve">
<path fill="#000000" opacity="1.000000" stroke="none" 
	d="
M272.000000,502.000000 
	C181.333359,502.000000 91.166710,502.000000 1.000048,502.000000 
	C1.000032,335.000061 1.000032,168.000122 1.000016,1.000138 
	C167.999893,1.000092 334.999786,1.000092 501.999756,1.000046 
	C501.999847,167.999863 501.999847,334.999725 501.999939,501.999786 
	C425.500000,502.000000 349.000000,502.000000 272.000000,502.000000 
M100.005569,353.014038 
	C100.005569,353.014038 99.990974,352.964508 99.488037,353.121368 
	C99.301666,353.408722 99.115295,353.696075 98.355064,354.278992 
	C96.913795,355.868652 95.472519,357.458313 93.349449,359.168549 
	C92.370560,359.772308 91.205528,360.199615 90.440811,361.006378 
	C79.738869,372.296509 69.005714,383.559479 58.479633,395.012421 
	C54.999752,398.798737 52.088078,403.107300 48.899830,407.198578 
	C50.459713,408.275360 51.719166,409.347229 53.146790,410.100281 
	C79.426765,423.963074 106.607025,435.638428 135.179794,443.968140 
	C154.710876,449.661926 174.710251,451.783722 194.880753,450.444061 
	C203.705566,449.857941 212.437729,446.921600 221.066071,444.526886 
	C240.363785,439.171051 257.679321,430.156738 271.898499,415.749329 
	C278.504791,409.055603 285.104889,402.362091 287.946594,392.325409 
	C287.967194,391.900543 287.987762,391.475647 288.572144,390.765869 
	C289.095612,390.416595 289.619080,390.067322 290.735077,389.844452 
	C291.137207,389.871155 291.539307,389.897858 292.393494,390.587921 
	C294.948578,391.074829 297.494965,391.925598 300.060181,391.986694 
	C312.150208,392.274475 323.801422,389.724030 335.333069,386.315735 
	C353.194427,381.036591 369.525574,372.521484 383.645691,360.666718 
	C401.661774,345.541016 414.575348,326.075806 424.829681,305.084900 
	C431.894684,290.622650 438.001617,275.654480 443.828033,260.637451 
	C448.191711,249.390381 451.425781,237.705002 455.558868,224.997040 
	C447.579773,224.322815 440.371643,223.400330 433.141541,223.171158 
	C420.013977,222.755051 406.872650,222.600952 393.738525,222.660477 
	C389.378357,222.680222 385.022705,223.691208 380.106689,224.118561 
	C379.104065,224.149750 378.101471,224.180923 376.590149,224.049606 
	C376.008301,223.726471 375.426422,223.403336 374.979492,222.165634 
	C375.301239,207.270584 371.281281,193.132660 366.546600,179.319061 
	C359.489014,158.728317 350.089600,139.188309 339.273163,120.209305 
	C325.635010,96.279083 309.888641,73.899048 292.846436,51.712299 
	C289.136200,55.763248 285.097656,59.344131 282.075989,63.640247 
	C275.287964,73.291199 269.051483,83.328339 262.505829,93.151863 
	C250.170090,111.664963 239.422195,131.076935 230.054520,151.228210 
	C226.623337,158.609192 224.114075,166.418716 220.807251,174.688797 
	C218.847427,180.445816 216.887619,186.202850 214.455612,192.101135 
	C214.162567,192.289566 213.976913,192.553543 213.234756,192.604538 
	C205.686432,190.344910 198.138123,188.085281 190.216278,185.215973 
	C189.157700,184.788559 188.099136,184.361145 186.551025,183.336212 
	C179.374817,181.616776 172.198608,179.897354 164.506683,178.070175 
	C164.334839,178.106277 164.162979,178.142395 163.311005,178.050095 
	C162.260910,177.684570 161.210831,177.319061 159.916290,176.496262 
	C159.609161,176.392395 159.302032,176.288513 158.244644,176.041046 
	C157.485962,176.061768 156.727264,176.082489 155.178467,176.016266 
	C147.785080,174.387985 140.391708,172.759705 132.482208,171.163742 
	C132.273254,171.428986 132.064301,171.694229 131.254410,172.004745 
	C130.857986,172.063263 130.461578,172.121765 129.344849,172.619186 
	C129.225906,178.923279 128.785004,185.242722 129.084778,191.526855 
	C129.348572,197.057159 130.440781,202.547958 131.048370,208.932907 
	C131.248260,213.396133 131.087479,217.911575 131.724686,222.311478 
	C132.970917,230.916595 134.662643,239.457199 136.189026,248.602905 
	C136.770844,250.081451 137.352661,251.559982 137.853241,253.579132 
	C137.558029,254.028137 137.262817,254.477142 136.497070,255.113312 
	C136.303284,255.380753 136.109497,255.648193 135.189957,255.982666 
	C134.464401,256.041229 133.738831,256.099792 132.284668,256.074707 
	C123.274620,258.013519 114.102638,259.405304 105.290886,262.013947 
	C90.509888,266.389709 75.933487,271.467224 61.328743,276.419769 
	C57.937992,277.569580 56.701313,279.562408 59.343689,283.188812 
	C63.847977,289.370483 67.513756,296.170044 72.101631,302.282318 
	C79.438942,312.057495 87.242317,321.482880 95.187958,331.690643 
	C98.115532,335.102722 101.043098,338.514832 103.977394,342.016724 
	C103.977394,342.016724 104.066582,342.015717 104.187080,342.496063 
	C104.378876,342.788177 104.644592,342.975525 105.015709,343.704712 
	C105.649742,344.506531 106.283775,345.308319 106.770050,346.616760 
	C106.478088,347.049500 106.186127,347.482239 105.353569,348.188812 
	C104.555885,349.087891 103.758194,349.986969 102.374100,350.990204 
	C101.905151,351.288910 101.436195,351.587585 100.515785,352.140930 
	C100.329613,352.425842 100.143440,352.710785 100.005569,353.014038 
z"/>
<path fill="#32A204" opacity="1.000000" stroke="none" 
	d="
M380.664978,224.249023 
	C385.022705,223.691208 389.378357,222.680222 393.738525,222.660477 
	C406.872650,222.600952 420.013977,222.755051 433.141541,223.171158 
	C440.371643,223.400330 447.579773,224.322815 455.558868,224.997040 
	C451.425781,237.705002 448.191711,249.390381 443.828033,260.637451 
	C438.001617,275.654480 431.894684,290.622650 424.829681,305.084900 
	C414.575348,326.075806 401.661774,345.541016 383.645691,360.666718 
	C369.525574,372.521484 353.194427,381.036591 335.333069,386.315735 
	C323.801422,389.724030 312.150208,392.274475 300.060181,391.986694 
	C297.494965,391.925598 294.948578,391.074829 292.397919,390.093750 
	C292.910248,389.360718 293.418152,389.121887 294.344849,388.893066 
	C296.890106,388.561401 299.081848,388.442200 301.131927,387.840454 
	C311.336090,384.845306 321.513489,381.757416 331.680786,378.638672 
	C352.229828,372.335358 370.541840,362.096161 385.677490,346.749512 
	C410.336823,321.746368 425.078766,290.933167 435.792847,258.089722 
	C440.470917,243.749329 432.302338,232.811905 416.862213,230.310059 
	C404.786194,228.353271 392.729980,226.273911 380.664978,224.249023 
z"/>
<path fill="#32A204" opacity="1.000000" stroke="none" 
	d="
M287.810852,392.948456 
	C285.104889,402.362091 278.504791,409.055603 271.898499,415.749329 
	C257.679321,430.156738 240.363785,439.171051 221.066071,444.526886 
	C212.437729,446.921600 203.705566,449.857941 194.880753,450.444061 
	C174.710251,451.783722 154.710876,449.661926 135.179794,443.968140 
	C106.607025,435.638428 79.426765,423.963074 53.146790,410.100281 
	C51.719166,409.347229 50.459713,408.275360 48.899830,407.198578 
	C52.088078,403.107300 54.999752,398.798737 58.479633,395.012421 
	C69.005714,383.559479 79.738869,372.296509 90.440811,361.006378 
	C91.205528,360.199615 92.370560,359.772308 93.603989,359.472534 
	C92.084755,363.282745 90.699783,367.064484 88.452736,370.235260 
	C84.327438,376.056427 79.311157,381.262177 75.360428,387.187286 
	C69.098099,396.579315 71.149620,407.325256 80.058632,414.217682 
	C82.414024,416.039886 84.959023,417.720673 87.638306,419.004486 
	C113.613564,431.450836 140.735565,439.987183 169.476669,443.180084 
	C197.551971,446.299011 223.327393,439.215302 247.301010,425.279938 
	C257.020569,419.630127 265.511200,411.904724 274.956512,405.728546 
	C279.747620,402.595612 283.501801,399.007294 286.097229,393.734436 
	C286.817657,393.371338 287.314240,393.159912 287.810852,392.948456 
z"/>
<path fill="#47B010" opacity="1.000000" stroke="none" 
	d="
M293.926025,388.883057 
	C293.418152,389.121887 292.910248,389.360718 292.171875,389.762054 
	C291.539307,389.897858 291.137207,389.871155 290.479980,389.413727 
	C290.844238,386.287872 291.463593,383.592743 292.240967,380.747162 
	C292.607178,380.391693 292.811066,380.182495 292.994141,379.983368 
	C292.977661,379.997681 292.937744,379.980011 293.294281,379.888977 
	C305.012024,376.043640 316.345001,372.201019 327.740326,368.553284 
	C351.578247,360.922699 372.055481,348.578125 387.617737,328.383606 
	C402.627258,308.906311 413.002625,287.092865 422.001282,264.472656 
	C426.904266,252.147980 422.221466,243.851959 409.048920,241.900192 
	C397.359131,240.168121 385.601105,238.885956 375.007050,232.603333 
	C375.662537,230.126495 376.325378,228.056274 377.332153,226.075775 
	C381.964386,227.823547 386.127502,230.077881 390.568176,231.009933 
	C398.677216,232.711960 406.960632,233.568787 415.153107,234.890762 
	C429.145538,237.148636 435.595703,247.947861 430.382294,261.270874 
	C425.600769,273.490112 420.524567,285.631104 414.835938,297.449280 
	C407.242035,313.225677 397.979492,328.161072 386.171692,341.087952 
	C368.483704,360.452393 345.960205,371.802521 320.646484,378.046173 
	C313.400757,379.833344 306.305145,382.302216 299.267212,384.813080 
	C297.258484,385.529694 295.694122,387.491943 293.926025,388.883057 
z"/>
<path fill="#47B010" opacity="1.000000" stroke="none" 
	d="
M287.878723,392.636932 
	C287.314240,393.159912 286.817657,393.371338 285.718933,393.768372 
	C282.855499,394.884064 280.272949,395.391296 278.391113,396.820862 
	C271.904480,401.748596 265.783905,407.157593 259.305359,412.096558 
	C237.068085,429.049164 211.997192,438.194885 183.970169,438.983978 
	C159.716904,439.666809 136.827744,433.328705 114.401276,425.048798 
	C105.381912,421.718781 96.248299,418.222900 88.006187,413.375214 
	C75.872246,406.238434 74.375000,395.932068 82.811073,384.722656 
	C86.303925,380.081573 90.461426,375.945068 94.039383,371.362549 
	C98.744301,365.336731 103.781578,359.359772 102.960510,350.886047 
	C103.758194,349.986969 104.555885,349.087891 105.968063,348.108398 
	C108.059143,349.001862 109.535728,349.975800 110.981987,351.349335 
	C110.084145,354.594849 109.793625,357.812744 108.242920,360.218231 
	C103.227280,367.998596 98.277908,375.927246 92.328506,382.976257 
	C82.582268,394.523865 83.776024,404.769073 97.403961,411.002136 
	C108.412941,416.037384 119.879303,420.257385 131.455185,423.825470 
	C149.148651,429.279205 167.280029,433.000397 185.955078,432.210632 
	C214.701569,430.994934 240.026276,420.884949 262.197266,402.515778 
	C268.529205,397.269623 274.333557,390.975586 283.232300,389.134216 
	C285.049286,389.822144 286.528839,390.436462 288.008362,391.050781 
	C287.987762,391.475647 287.967194,391.900543 287.878723,392.636932 
z"/>
<path fill="#52BA14" opacity="1.000000" stroke="none" 
	d="
M221.184250,174.032761 
	C224.114075,166.418716 226.623337,158.609192 230.054520,151.228210 
	C239.422195,131.076935 250.170090,111.664963 262.505829,93.151863 
	C269.051483,83.328339 275.287964,73.291199 282.075989,63.640247 
	C285.097656,59.344131 289.136200,55.763248 292.846436,51.712299 
	C309.888641,73.899048 325.635010,96.279083 339.273163,120.209305 
	C350.089600,139.188309 359.489014,158.728317 366.546600,179.319061 
	C371.281281,193.132660 375.301239,207.270584 374.687042,222.743240 
	C373.937531,223.551392 373.480469,223.781921 373.041595,223.589813 
	C372.723328,220.760422 372.386871,218.353668 372.043213,215.549957 
	C371.690918,213.101166 371.345825,211.049362 370.995850,208.575317 
	C369.979492,204.159241 369.274414,200.052902 367.861969,196.206299 
	C366.683319,192.996368 364.412170,190.201569 363.079956,187.031677 
	C356.580872,171.567673 351.246552,155.516708 343.576172,140.667252 
	C334.138306,122.396080 322.859863,105.070198 312.208557,87.437454 
	C310.693115,84.928734 308.406189,82.792030 306.173706,80.826950 
	C297.197968,72.926361 287.175293,73.095886 278.382782,81.197403 
	C276.674408,82.771477 274.969513,84.417824 273.597137,86.277420 
	C259.917786,104.813499 248.695496,124.801483 238.358414,145.354813 
	C233.634094,154.748199 227.999634,163.684662 222.732513,172.802094 
	C222.425690,173.333206 221.709778,173.627991 221.184250,174.032761 
z"/>
<path fill="#5ABE1B" opacity="1.000000" stroke="none" 
	d="
M220.995758,174.360779 
	C221.709778,173.627991 222.425690,173.333206 222.732513,172.802094 
	C227.999634,163.684662 233.634094,154.748199 238.358414,145.354813 
	C248.695496,124.801483 259.917786,104.813499 273.597137,86.277420 
	C274.969513,84.417824 276.674408,82.771477 278.382782,81.197403 
	C287.175293,73.095886 297.197968,72.926361 306.173706,80.826950 
	C308.406189,82.792030 310.693115,84.928734 312.208557,87.437454 
	C322.859863,105.070198 334.138306,122.396080 343.576172,140.667252 
	C351.246552,155.516708 356.580872,171.567673 363.079956,187.031677 
	C364.412170,190.201569 366.683319,192.996368 367.861969,196.206299 
	C369.274414,200.052902 369.979492,204.159241 370.645264,208.511444 
	C368.209747,206.874008 365.356354,205.247971 364.176514,202.811539 
	C360.924713,196.096100 357.988098,189.170944 355.611542,182.098663 
	C345.243500,151.245026 330.040161,122.872231 311.899933,95.992714 
	C309.686920,92.713539 307.107666,89.504776 304.101807,86.970802 
	C295.339966,79.584503 286.057037,80.464424 278.788696,89.398849 
	C262.920288,108.904686 251.313644,130.985123 240.574112,153.567062 
	C235.512665,164.209732 231.218857,175.346695 221.079346,182.645554 
	C219.935440,183.468979 219.667908,185.509827 218.826477,187.265533 
	C217.772568,189.028519 216.886154,190.512131 215.764832,191.994995 
	C215.529938,191.994247 215.060257,192.005249 215.032196,191.979156 
	C215.004135,191.953079 214.927811,191.959869 214.927811,191.959869 
	C216.887619,186.202850 218.847427,180.445816 220.995758,174.360779 
z"/>
<path fill="#3CA908" opacity="1.000000" stroke="none" 
	d="
M102.667313,350.938110 
	C103.781578,359.359772 98.744301,365.336731 94.039383,371.362549 
	C90.461426,375.945068 86.303925,380.081573 82.811073,384.722656 
	C74.375000,395.932068 75.872246,406.238434 88.006187,413.375214 
	C96.248299,418.222900 105.381912,421.718781 114.401276,425.048798 
	C136.827744,433.328705 159.716904,439.666809 183.970169,438.983978 
	C211.997192,438.194885 237.068085,429.049164 259.305359,412.096558 
	C265.783905,407.157593 271.904480,401.748596 278.391113,396.820862 
	C280.272949,395.391296 282.855499,394.884064 285.495148,393.920044 
	C283.501801,399.007294 279.747620,402.595612 274.956512,405.728546 
	C265.511200,411.904724 257.020569,419.630127 247.301010,425.279938 
	C223.327393,439.215302 197.551971,446.299011 169.476669,443.180084 
	C140.735565,439.987183 113.613564,431.450836 87.638306,419.004486 
	C84.959023,417.720673 82.414024,416.039886 80.058632,414.217682 
	C71.149620,407.325256 69.098099,396.579315 75.360428,387.187286 
	C79.311157,381.262177 84.327438,376.056427 88.452736,370.235260 
	C90.699783,367.064484 92.084755,363.282745 93.944885,359.412262 
	C95.472519,357.458313 96.913795,355.868652 98.831543,353.974976 
	C99.552773,353.452026 99.780418,353.216522 99.990974,352.964508 
	C99.990974,352.964508 100.005569,353.014038 100.167030,352.835815 
	C100.541412,352.400482 100.754333,352.143402 100.967247,351.886292 
	C101.436195,351.587585 101.905151,351.288910 102.667313,350.938110 
z"/>
<path fill="#3CA908" opacity="1.000000" stroke="none" 
	d="
M294.344849,388.893066 
	C295.694122,387.491943 297.258484,385.529694 299.267212,384.813080 
	C306.305145,382.302216 313.400757,379.833344 320.646484,378.046173 
	C345.960205,371.802521 368.483704,360.452393 386.171692,341.087952 
	C397.979492,328.161072 407.242035,313.225677 414.835938,297.449280 
	C420.524567,285.631104 425.600769,273.490112 430.382294,261.270874 
	C435.595703,247.947861 429.145538,237.148636 415.153107,234.890762 
	C406.960632,233.568787 398.677216,232.711960 390.568176,231.009933 
	C386.127502,230.077881 381.964386,227.823547 377.360962,225.632431 
	C377.063538,224.803635 377.081177,224.507874 377.098846,224.212097 
	C378.101471,224.180923 379.104065,224.149750 380.385834,224.183792 
	C392.729980,226.273911 404.786194,228.353271 416.862213,230.310059 
	C432.302338,232.811905 440.470917,243.749329 435.792847,258.089722 
	C425.078766,290.933167 410.336823,321.746368 385.677490,346.749512 
	C370.541840,362.096161 352.229828,372.335358 331.680786,378.638672 
	C321.513489,381.757416 311.336090,384.845306 301.131927,387.840454 
	C299.081848,388.442200 296.890106,388.561401 294.344849,388.893066 
z"/>
<path fill="#3CA908" opacity="1.000000" stroke="none" 
	d="
M94.848656,331.056122 
	C87.242317,321.482880 79.438942,312.057495 72.101631,302.282318 
	C67.513756,296.170044 63.847977,289.370483 59.343689,283.188812 
	C56.701313,279.562408 57.937992,277.569580 61.328743,276.419769 
	C75.933487,271.467224 90.509888,266.389709 105.290886,262.013947 
	C114.102638,259.405304 123.274620,258.013519 132.500854,256.352448 
	C132.156921,257.103638 131.596817,257.577118 130.659149,258.126709 
	C124.815536,260.793396 119.411934,263.527557 113.867813,265.938599 
	C106.717621,269.048096 99.262840,271.508972 92.283165,274.947327 
	C80.046623,280.975403 76.752342,292.283234 83.476440,304.168488 
	C86.662704,309.800385 90.713997,314.979187 93.514275,320.778076 
	C94.939934,323.730438 94.464645,327.600769 94.848656,331.056122 
z"/>
<path fill="#47B010" opacity="1.000000" stroke="none" 
	d="
M160.160736,176.953552 
	C161.210831,177.319061 162.260910,177.684570 163.777527,178.153976 
	C164.244049,178.257858 164.638687,178.271118 164.638687,178.271118 
	C164.638687,178.271118 165.022400,178.177933 165.022400,178.177933 
	C172.198608,179.897354 179.374817,181.616776 187.010620,183.905487 
	C188.510071,184.925064 189.549942,185.375351 190.589798,185.825653 
	C198.138123,188.085281 205.686432,190.344910 213.602112,192.781494 
	C213.969467,192.958466 214.043823,193.019760 214.046707,193.244553 
	C214.049591,193.469345 214.042908,193.918747 213.682800,193.854004 
	C211.884277,193.512909 210.445847,193.236542 208.685623,192.774704 
	C206.285217,192.126541 204.093582,190.987213 202.146591,191.312454 
	C190.662292,193.230759 179.754227,190.791779 168.720596,188.008102 
	C151.299591,183.612946 138.376816,193.592117 140.362854,211.253799 
	C141.719772,223.320923 138.350723,234.441177 137.513214,246.013992 
	C137.462646,246.712906 136.635651,247.355652 136.169922,248.024521 
	C134.662643,239.457199 132.970917,230.916595 131.724686,222.311478 
	C131.087479,217.911575 131.248260,213.396133 131.251648,208.113358 
	C131.609070,204.182144 131.763214,201.070480 132.168793,197.727661 
	C132.906845,196.831299 133.584763,196.234497 133.850830,195.490417 
	C136.891693,186.986221 142.787170,181.843872 151.569199,179.668274 
	C153.228226,179.257263 154.511780,177.330536 155.968582,176.103210 
	C156.727264,176.082489 157.485962,176.061768 158.804932,176.255219 
	C159.614090,176.657593 159.879257,176.818970 160.160736,176.953552 
z"/>
<path fill="#47B010" opacity="1.000000" stroke="none" 
	d="
M95.018311,331.373383 
	C94.464645,327.600769 94.939934,323.730438 93.514275,320.778076 
	C90.713997,314.979187 86.662704,309.800385 83.476440,304.168488 
	C76.752342,292.283234 80.046623,280.975403 92.283165,274.947327 
	C99.262840,271.508972 106.717621,269.048096 113.867813,265.938599 
	C119.411934,263.527557 124.815536,260.793396 130.585907,258.470825 
	C128.194168,261.519165 125.964981,265.184723 122.708397,266.902405 
	C115.073463,270.929413 106.867622,273.855530 99.036339,277.532806 
	C85.285423,283.989685 82.338196,294.157867 90.913582,306.734009 
	C98.224068,317.455170 105.049461,328.174713 103.970673,341.926910 
	C101.043098,338.514832 98.115532,335.102722 95.018311,331.373383 
z"/>
<path fill="#52BA14" opacity="1.000000" stroke="none" 
	d="
M136.179474,248.313721 
	C136.635651,247.355652 137.462646,246.712906 137.513214,246.013992 
	C138.350723,234.441177 141.719772,223.320923 140.362854,211.253799 
	C138.376816,193.592117 151.299591,183.612946 168.720596,188.008102 
	C179.754227,190.791779 190.662292,193.230759 202.146591,191.312454 
	C204.093582,190.987213 206.285217,192.126541 208.441284,193.044495 
	C207.070328,194.248322 205.677567,195.493362 204.164246,195.663010 
	C195.762390,196.604828 187.352829,197.893188 178.952866,195.275818 
	C174.837387,193.993484 170.602066,192.938492 166.343002,192.303955 
	C153.896606,190.449585 145.291016,197.864624 145.010330,210.426041 
	C144.973206,212.087708 144.839493,213.770309 145.031509,215.410324 
	C146.587631,228.701645 143.764389,241.149490 137.934479,253.038528 
	C137.352661,251.559982 136.770844,250.081451 136.179474,248.313721 
z"/>
<path fill="#62C320" opacity="1.000000" stroke="none" 
	d="
M137.893860,253.308838 
	C143.764389,241.149490 146.587631,228.701645 145.031509,215.410324 
	C144.839493,213.770309 144.973206,212.087708 145.010330,210.426041 
	C145.291016,197.864624 153.896606,190.449585 166.343002,192.303955 
	C170.602066,192.938492 174.837387,193.993484 178.952866,195.275818 
	C187.352829,197.893188 195.762390,196.604828 204.164246,195.663010 
	C205.677567,195.493362 207.070328,194.248322 208.763092,193.229980 
	C210.445847,193.236542 211.884277,193.512909 213.651489,194.171936 
	C213.794281,195.373779 213.608261,196.192993 213.040878,197.154907 
	C198.979340,202.653442 185.221649,201.278351 171.460587,197.712006 
	C157.299011,194.041870 148.616547,200.924301 149.068588,215.551041 
	C149.109604,216.878799 149.408890,218.202423 149.403305,219.527191 
	C149.351440,231.807755 148.376465,243.848328 139.779083,254.031250 
	C138.640778,254.419434 137.804184,254.672791 136.967621,254.926147 
	C137.262817,254.477142 137.558029,254.028137 137.893860,253.308838 
z"/>
<path fill="#5ABE1B" opacity="1.000000" stroke="none" 
	d="
M106.917809,346.110138 
	C106.283775,345.308319 105.649742,344.506531 105.188019,343.223206 
	C105.598183,342.515259 105.813187,342.268890 106.218369,341.699341 
	C106.901520,339.498810 108.147652,337.393646 107.704933,335.740845 
	C105.960701,329.229248 104.116570,322.674774 101.464371,316.499176 
	C99.521973,311.976349 96.133728,308.094269 93.612457,303.796051 
	C88.719795,295.455170 90.739868,287.265686 99.147026,282.506714 
	C103.605537,279.982941 108.623177,278.461578 113.155182,276.049469 
	C119.575363,272.632446 126.031494,269.166901 131.953857,264.987488 
	C134.339325,263.304047 135.353561,259.677490 137.244049,257.150085 
	C138.015778,258.550049 138.535324,259.735168 138.882767,261.230896 
	C134.256851,271.214539 125.431244,275.504913 116.456200,279.605652 
	C111.931679,281.672943 107.203232,283.380951 102.911079,285.849670 
	C96.236015,289.688934 94.872787,294.245605 97.705139,301.432953 
	C98.488853,303.421692 99.532219,305.363922 100.763741,307.110870 
	C106.508034,315.259460 110.466515,324.036560 111.462112,334.105530 
	C111.673065,336.239014 113.297493,338.232727 114.039215,340.529358 
	C111.511101,342.548615 109.214455,344.329376 106.917809,346.110138 
z"/>
<path fill="#52BA14" opacity="1.000000" stroke="none" 
	d="
M136.991852,256.935272 
	C135.353561,259.677490 134.339325,263.304047 131.953857,264.987488 
	C126.031494,269.166901 119.575363,272.632446 113.155182,276.049469 
	C108.623177,278.461578 103.605537,279.982941 99.147026,282.506714 
	C90.739868,287.265686 88.719795,295.455170 93.612457,303.796051 
	C96.133728,308.094269 99.521973,311.976349 101.464371,316.499176 
	C104.116570,322.674774 105.960701,329.229248 107.704933,335.740845 
	C108.147652,337.393646 106.901520,339.498810 105.894897,341.692810 
	C104.927780,341.998230 104.497185,342.006989 104.066582,342.015717 
	C104.066582,342.015717 103.977394,342.016724 103.974030,341.971802 
	C105.049461,328.174713 98.224068,317.455170 90.913582,306.734009 
	C82.338196,294.157867 85.285423,283.989685 99.036339,277.532806 
	C106.867622,273.855530 115.073463,270.929413 122.708397,266.902405 
	C125.964981,265.184723 128.194168,261.519165 130.963470,258.394714 
	C131.596817,257.577118 132.156921,257.103638 132.865143,256.394287 
	C133.738831,256.099792 134.464401,256.041229 135.735840,256.115601 
	C136.530548,256.464935 136.767258,256.693848 136.991852,256.935272 
z"/>
<path fill="#3CA908" opacity="1.000000" stroke="none" 
	d="
M155.573517,176.059738 
	C154.511780,177.330536 153.228226,179.257263 151.569199,179.668274 
	C142.787170,181.843872 136.891693,186.986221 133.850830,195.490417 
	C133.584763,196.234497 132.906845,196.831299 132.022797,197.350159 
	C131.105301,188.862625 130.585220,180.521454 130.065155,172.180267 
	C130.461578,172.121765 130.857986,172.063263 131.755661,171.859039 
	C132.514740,171.533005 132.761871,171.339020 132.998322,171.131409 
	C140.391708,172.759705 147.785080,174.387985 155.573517,176.059738 
z"/>
<path fill="#3CA908" opacity="1.000000" stroke="none" 
	d="
M137.244049,257.150085 
	C136.767258,256.693848 136.530548,256.464935 136.098724,256.082092 
	C136.109497,255.648193 136.303284,255.380753 136.732330,255.019730 
	C137.804184,254.672791 138.640778,254.419434 140.201813,254.051331 
	C145.014694,253.416061 149.103088,252.895493 153.402298,252.329773 
	C153.613098,252.284607 154.025482,252.163361 154.397919,252.184265 
	C155.512573,252.138382 156.254791,252.071609 157.249298,252.083191 
	C157.838181,252.264603 158.174774,252.367676 158.253082,252.790253 
	C153.061081,260.032196 148.127380,266.954620 143.069275,273.529816 
	C141.951324,270.136627 140.957779,267.090729 139.913330,263.723145 
	C139.593231,262.574402 139.324051,261.747345 139.054855,260.920288 
	C138.535324,259.735168 138.015778,258.550049 137.244049,257.150085 
z"/>
<path fill="#32A204" opacity="1.000000" stroke="none" 
	d="
M106.843933,346.363464 
	C109.214455,344.329376 111.511101,342.548615 114.179871,340.418213 
	C114.741997,339.920868 114.904587,339.747498 115.352165,339.373779 
	C117.423187,338.088470 119.181808,336.977753 120.952110,336.311707 
	C120.316574,343.597260 119.669350,350.438232 118.715454,357.147034 
	C117.283920,356.292664 116.159050,355.570404 114.862137,354.587402 
	C113.464165,353.201019 112.238243,352.075378 111.012314,350.949738 
	C109.535728,349.975800 108.059143,349.001862 106.238358,347.971466 
	C106.186127,347.482239 106.478088,347.049500 106.843933,346.363464 
z"/>
<path fill="#32A204" opacity="1.000000" stroke="none" 
	d="
M376.844482,224.130859 
	C377.081177,224.507874 377.063538,224.803635 377.017029,225.542725 
	C376.325378,228.056274 375.662537,230.126495 374.978455,232.838043 
	C374.957214,233.479370 374.903412,233.949402 374.559570,233.893860 
	C366.897858,229.327103 359.198975,226.651077 350.441986,228.700531 
	C349.744843,228.863663 348.879883,228.309723 348.483459,227.972885 
	C356.569275,226.559830 364.264496,225.262909 372.225037,223.992386 
	C372.667969,224.016663 372.845673,224.014557 373.023407,224.012451 
	C373.480469,223.781921 373.937531,223.551392 374.619568,223.200531 
	C375.426422,223.403336 376.008301,223.726471 376.844482,224.130859 
z"/>
<path fill="#32A204" opacity="1.000000" stroke="none" 
	d="
M288.290253,390.908325 
	C286.528839,390.436462 285.049286,389.822144 282.899231,389.046692 
	C280.473389,388.268524 278.718109,387.651489 276.883728,386.844116 
	C276.804596,386.653748 276.667267,386.265015 276.969086,386.029663 
	C282.485474,383.206451 287.700073,380.618530 292.918976,378.355530 
	C292.928131,379.113617 292.932922,379.546814 292.937744,379.980011 
	C292.937744,379.980011 292.977661,379.997681 292.824707,380.124115 
	C292.456268,380.448730 292.260010,380.664398 292.082977,380.897614 
	C291.463593,383.592743 290.844238,386.287872 290.183716,389.350525 
	C289.619080,390.067322 289.095612,390.416595 288.290253,390.908325 
z"/>
<path fill="#32A204" opacity="1.000000" stroke="none" 
	d="
M129.705002,172.399719 
	C130.585220,180.521454 131.105301,188.862625 131.771378,197.581314 
	C131.763214,201.070480 131.609070,204.182144 131.311035,207.675003 
	C130.440781,202.547958 129.348572,197.057159 129.084778,191.526855 
	C128.785004,185.242722 129.225906,178.923279 129.705002,172.399719 
z"/>
<path fill="#3CA908" opacity="1.000000" stroke="none" 
	d="
M190.403046,185.520813 
	C189.549942,185.375351 188.510071,184.925064 187.255371,184.204254 
	C188.099136,184.361145 189.157700,184.788559 190.403046,185.520813 
z"/>
<path fill="#47B010" opacity="1.000000" stroke="none" 
	d="
M104.126831,342.255890 
	C104.497185,342.006989 104.927780,341.998230 105.681862,341.996033 
	C105.813187,342.268890 105.598183,342.515259 105.172272,342.899841 
	C104.644592,342.975525 104.378876,342.788177 104.126831,342.255890 
z"/>
<path fill="#32A204" opacity="1.000000" stroke="none" 
	d="
M99.739502,353.042938 
	C99.780418,353.216522 99.552773,353.452026 99.118477,353.827209 
	C99.115295,353.696075 99.301666,353.408722 99.739502,353.042938 
z"/>
<path fill="#32A204" opacity="1.000000" stroke="none" 
	d="
M100.741516,352.013611 
	C100.754333,352.143402 100.541412,352.400482 100.142883,352.826660 
	C100.143440,352.710785 100.329613,352.425842 100.741516,352.013611 
z"/>
<path fill="#3CA908" opacity="1.000000" stroke="none" 
	d="
M164.764542,178.124054 
	C165.022400,178.177933 164.638687,178.271118 164.638687,178.271118 
	C164.638687,178.271118 164.244049,178.257858 164.117584,178.218201 
	C164.162979,178.142395 164.334839,178.106277 164.764542,178.124054 
z"/>
<path fill="#32A204" opacity="1.000000" stroke="none" 
	d="
M132.740265,171.147583 
	C132.761871,171.339020 132.514740,171.533005 132.056122,171.836395 
	C132.064301,171.694229 132.273254,171.428986 132.740265,171.147583 
z"/>
<path fill="#47B010" opacity="1.000000" stroke="none" 
	d="
M213.934067,192.925781 
	C213.976913,192.553543 214.162567,192.289566 214.691711,192.030502 
	C214.927811,191.959869 215.004135,191.953079 214.865677,192.151184 
	C214.506302,192.579819 214.278503,192.803314 214.043823,193.019760 
	C214.043823,193.019760 213.969467,192.958466 213.934067,192.925781 
z"/>
<path fill="#3CA908" opacity="1.000000" stroke="none" 
	d="
M160.038513,176.724915 
	C159.879257,176.818970 159.614090,176.657593 159.180069,176.327026 
	C159.302032,176.288513 159.609161,176.392395 160.038513,176.724915 
z"/>
<path fill="#52BA14" opacity="1.000000" stroke="none" 
	d="
M293.294281,379.888977 
	C292.932922,379.546814 292.928131,379.113617 293.043457,378.108643 
	C293.414551,377.047028 293.665558,376.557251 294.273132,375.957336 
	C306.602356,371.757568 318.637451,367.840515 330.532288,363.535858 
	C346.484680,357.762756 361.907440,350.548340 373.384674,337.775299 
	C382.335419,327.813934 390.716125,317.013092 397.456329,305.478638 
	C405.235596,292.165894 411.237518,277.770233 417.432892,263.592072 
	C421.493713,254.298981 418.017944,248.374969 408.322113,246.177872 
	C407.022552,245.883362 405.714783,245.507660 404.396027,245.433914 
	C394.119781,244.859238 384.371887,242.236023 375.011749,237.608887 
	C374.968567,236.118561 374.935974,235.033981 374.903412,233.949402 
	C374.903412,233.949402 374.957214,233.479370 374.985840,233.244659 
	C385.601105,238.885956 397.359131,240.168121 409.048920,241.900192 
	C422.221466,243.851959 426.904266,252.147980 422.001282,264.472656 
	C413.002625,287.092865 402.627258,308.906311 387.617737,328.383606 
	C372.055481,348.578125 351.578247,360.922699 327.740326,368.553284 
	C316.345001,372.201019 305.012024,376.043640 293.294281,379.888977 
z"/>
<path fill="#52BA14" opacity="1.000000" stroke="none" 
	d="
M292.240967,380.747162 
	C292.260010,380.664398 292.456268,380.448730 292.841187,380.109802 
	C292.811066,380.182495 292.607178,380.391693 292.240967,380.747162 
z"/>
<path fill="#52BA14" opacity="1.000000" stroke="none" 
	d="
M276.962830,387.034454 
	C278.718109,387.651489 280.473389,388.268524 282.561768,388.973083 
	C274.333557,390.975586 268.529205,397.269623 262.197266,402.515778 
	C240.026276,420.884949 214.701569,430.994934 185.955078,432.210632 
	C167.280029,433.000397 149.148651,429.279205 131.455185,423.825470 
	C119.879303,420.257385 108.412941,416.037384 97.403961,411.002136 
	C83.776024,404.769073 82.582268,394.523865 92.328506,382.976257 
	C98.277908,375.927246 103.227280,367.998596 108.242920,360.218231 
	C109.793625,357.812744 110.084145,354.594849 110.981979,351.349335 
	C112.238243,352.075378 113.464165,353.201019 114.841888,355.012604 
	C113.196480,360.826050 112.122704,366.378601 109.422104,370.975342 
	C105.911446,376.950928 100.926369,382.038971 96.905769,387.741547 
	C91.671364,395.165771 92.454895,399.718170 99.871460,405.003723 
	C102.683083,407.007507 105.929268,408.527100 109.165390,409.782928 
	C115.527054,412.251740 121.944199,414.633667 128.473312,416.604553 
	C148.751785,422.725708 169.161026,427.902863 190.710205,426.108856 
	C214.016663,424.168518 235.169205,416.779449 254.028351,402.794342 
	C261.474243,397.272766 269.306519,392.272247 276.962830,387.034454 
z"/>
<path fill="#6BC932" opacity="1.000000" stroke="none" 
	d="
M373.041595,223.589813 
	C372.845673,224.014557 372.667969,224.016663 371.866089,223.833466 
	C368.517975,223.411621 365.794128,223.175095 362.994934,222.593628 
	C362.208099,220.953201 361.791412,219.311310 360.739380,218.415970 
	C350.631958,209.814133 345.838165,198.093063 341.911804,186.004883 
	C333.247253,159.329041 320.333588,134.772537 305.181152,111.328712 
	C296.471161,97.852676 288.347107,97.479851 280.093597,111.253723 
	C269.670593,128.648193 260.082733,146.594879 251.086212,164.774261 
	C245.026840,177.018494 238.025513,187.949432 225.594864,194.987762 
	C224.109848,195.004318 223.029907,195.023941 221.965652,195.017670 
	C221.981323,194.991776 222.018784,195.039307 221.698715,194.883209 
	C220.453125,194.499390 219.527588,194.271683 218.320740,193.972717 
	C217.359512,193.266220 216.679626,192.630966 215.999756,191.995728 
	C216.886154,190.512131 217.772568,189.028519 219.209488,187.245300 
	C222.235458,185.733765 225.286301,185.067947 227.064529,183.194290 
	C230.582642,179.487411 233.992432,175.432755 236.397720,170.957886 
	C245.847977,153.376450 254.495743,135.354736 264.246002,117.947128 
	C269.331390,108.867905 275.661041,100.377708 282.231293,92.272072 
	C287.522797,85.744026 294.190918,85.270409 300.813080,90.431366 
	C304.530212,93.328293 307.705231,97.208885 310.330566,101.172195 
	C328.334717,128.352112 343.527771,156.915268 353.382263,188.187195 
	C355.655670,195.401550 359.494659,202.190948 363.179596,208.863113 
	C365.012787,212.182343 367.134613,216.066696 372.050415,215.946930 
	C372.386871,218.353668 372.723328,220.760422 373.041595,223.589813 
z"/>
<path fill="#62C320" opacity="1.000000" stroke="none" 
	d="
M372.043243,215.549957 
	C367.134613,216.066696 365.012787,212.182343 363.179596,208.863113 
	C359.494659,202.190948 355.655670,195.401550 353.382263,188.187195 
	C343.527771,156.915268 328.334717,128.352112 310.330566,101.172195 
	C307.705231,97.208885 304.530212,93.328293 300.813080,90.431366 
	C294.190918,85.270409 287.522797,85.744026 282.231293,92.272072 
	C275.661041,100.377708 269.331390,108.867905 264.246002,117.947128 
	C254.495743,135.354736 245.847977,153.376450 236.397720,170.957886 
	C233.992432,175.432755 230.582642,179.487411 227.064529,183.194290 
	C225.286301,185.067947 222.235458,185.733765 219.376999,186.965912 
	C219.667908,185.509827 219.935440,183.468979 221.079346,182.645554 
	C231.218857,175.346695 235.512665,164.209732 240.574112,153.567062 
	C251.313644,130.985123 262.920288,108.904686 278.788696,89.398849 
	C286.057037,80.464424 295.339966,79.584503 304.101807,86.970802 
	C307.107666,89.504776 309.686920,92.713539 311.899933,95.992714 
	C330.040161,122.872231 345.243500,151.245026 355.611542,182.098663 
	C357.988098,189.170944 360.924713,196.096100 364.176514,202.811539 
	C365.356354,205.247971 368.209747,206.874008 370.650146,208.933685 
	C371.345825,211.049362 371.690918,213.101166 372.043243,215.549957 
z"/>
<path fill="#3CA908" opacity="1.000000" stroke="none" 
	d="
M215.764847,191.994980 
	C216.679626,192.630966 217.359512,193.266220 218.621735,194.184143 
	C220.142303,194.657639 221.080551,194.848480 222.018784,195.039307 
	C222.018784,195.039307 221.981323,194.991776 222.182663,195.278625 
	C224.706909,196.981171 227.029816,198.396881 228.991455,199.969055 
	C222.927872,203.186829 217.225555,206.248123 211.394012,209.234894 
	C211.264786,209.160355 211.016815,208.994461 211.087494,208.608612 
	C211.912857,204.485916 212.667557,200.749054 213.422241,197.012192 
	C213.608261,196.192993 213.794281,195.373779 214.011597,194.236664 
	C214.042908,193.918747 214.049591,193.469345 214.046707,193.244553 
	C214.278503,192.803314 214.506302,192.579819 214.893738,192.177277 
	C215.060257,192.005249 215.529938,191.994247 215.764847,191.994980 
z"/>
<path fill="#6BC932" opacity="1.000000" stroke="none" 
	d="
M213.040894,197.154907 
	C212.667557,200.749054 211.912857,204.485916 210.733521,208.706284 
	C198.613541,214.645966 186.370941,215.134171 173.836777,213.327713 
	C166.723831,212.302582 163.742310,213.897247 163.448883,220.414612 
	C162.948151,231.536987 159.086227,241.386124 153.848145,251.057281 
	C153.531601,251.557236 153.361557,251.966095 153.191498,252.374939 
	C149.103088,252.895493 145.014694,253.416061 140.503540,253.916519 
	C148.376465,243.848328 149.351440,231.807755 149.403305,219.527191 
	C149.408890,218.202423 149.109604,216.878799 149.068588,215.551041 
	C148.616547,200.924301 157.299011,194.041870 171.460587,197.712006 
	C185.221649,201.278351 198.979340,202.653442 213.040894,197.154907 
z"/>
<path fill="#62C320" opacity="1.000000" stroke="none" 
	d="
M115.039757,339.548401 
	C114.904587,339.747498 114.741997,339.920868 114.411331,340.179688 
	C113.297493,338.232727 111.673065,336.239014 111.462112,334.105530 
	C110.466515,324.036560 106.508034,315.259460 100.763741,307.110870 
	C99.532219,305.363922 98.488853,303.421692 97.705139,301.432953 
	C94.872787,294.245605 96.236015,289.688934 102.911079,285.849670 
	C107.203232,283.380951 111.931679,281.672943 116.456200,279.605652 
	C125.431244,275.504913 134.256851,271.214539 138.882767,261.230896 
	C139.324051,261.747345 139.593231,262.574402 139.784210,264.022583 
	C139.901352,271.250214 136.129669,275.534698 130.936996,278.593536 
	C124.668190,282.286346 118.163170,285.585449 111.701141,288.940918 
	C105.180069,292.327026 103.554733,296.711975 106.647980,303.257629 
	C107.354591,304.752930 108.186905,306.196777 109.055397,307.606384 
	C115.145897,317.491028 117.338913,328.096527 115.039757,339.548401 
z"/>
<path fill="#7BD144" opacity="1.000000" stroke="none" 
	d="
M158.511368,252.470749 
	C158.174774,252.367676 157.838181,252.264603 157.445862,251.816864 
	C160.635193,248.686508 163.682922,245.616104 167.179199,243.192871 
	C170.891342,240.620010 175.030563,238.663803 178.980560,236.433517 
	C183.668457,233.786591 188.517044,231.382355 192.999329,228.423523 
	C198.916748,224.517380 204.545944,220.174576 210.288391,216.487518 
	C210.505417,225.983887 210.733109,235.012238 210.942780,244.489746 
	C210.958557,246.867172 211.367233,248.890457 210.910019,250.694275 
	C210.529892,252.194016 209.131866,253.435745 207.826508,254.644653 
	C191.285583,250.530594 174.892242,251.651337 158.511368,252.470749 
z"/>
<path fill="#6BC932" opacity="1.000000" stroke="none" 
	d="
M115.352165,339.373779 
	C117.338913,328.096527 115.145897,317.491028 109.055397,307.606384 
	C108.186905,306.196777 107.354591,304.752930 106.647980,303.257629 
	C103.554733,296.711975 105.180069,292.327026 111.701141,288.940918 
	C118.163170,285.585449 124.668190,282.286346 130.936996,278.593536 
	C136.129669,275.534698 139.901352,271.250214 139.835114,264.344269 
	C140.957779,267.090729 141.951324,270.136627 143.145233,273.887207 
	C143.612595,276.015228 143.879593,277.438568 143.864624,279.071960 
	C138.425232,285.702881 133.210205,292.079224 128.176483,298.595612 
	C127.473724,299.505371 127.621681,301.098114 127.446991,302.384338 
	C127.139687,304.647034 126.932533,306.923737 126.603798,309.182983 
	C125.440262,317.179413 124.243019,325.170929 123.013954,333.118042 
	C122.969353,333.071747 123.049614,332.971283 122.874596,333.208496 
	C122.470520,333.766907 122.241463,334.088135 121.884186,334.610962 
	C121.478767,335.201141 121.201569,335.589722 120.954330,335.954224 
	C120.984291,335.930145 120.940422,335.867065 120.940422,335.867065 
	C119.181808,336.977753 117.423187,338.088470 115.352165,339.373779 
z"/>
<path fill="#76CE3E" opacity="1.000000" stroke="none" 
	d="
M210.299057,216.019485 
	C204.545944,220.174576 198.916748,224.517380 192.999329,228.423523 
	C188.517044,231.382355 183.668457,233.786591 178.980560,236.433517 
	C175.030563,238.663803 170.891342,240.620010 167.179199,243.192871 
	C163.682922,245.616104 160.635193,248.686508 157.193573,251.738525 
	C156.254791,252.071609 155.512573,252.138382 154.389709,251.884583 
	C154.004257,251.364731 153.999435,251.165451 153.994629,250.966171 
	C159.086227,241.386124 162.948151,231.536987 163.448883,220.414612 
	C163.742310,213.897247 166.723831,212.302582 173.836777,213.327713 
	C186.370941,215.134171 198.613541,214.645966 210.662842,209.092133 
	C211.016815,208.994461 211.264786,209.160355 211.380829,209.575317 
	C211.097595,212.000000 210.698334,214.009750 210.299057,216.019485 
z"/>
<path fill="#47B010" opacity="1.000000" stroke="none" 
	d="
M144.146591,278.861908 
	C143.879593,277.438568 143.612595,276.015228 143.269638,274.234497 
	C148.127380,266.954620 153.061081,260.032196 158.253082,252.790253 
	C174.892242,251.651337 191.285583,250.530594 207.483383,254.810364 
	C206.857971,255.274597 206.224808,255.506134 205.575912,255.565445 
	C195.714127,256.467072 185.838577,257.240204 175.997360,258.325470 
	C174.166718,258.527405 172.299088,259.727386 170.743179,260.868530 
	C161.444916,267.687836 155.644394,276.847107 152.724930,287.971710 
	C152.245224,289.799652 150.825562,291.380920 149.649078,293.040894 
	C149.457870,293.005646 149.075714,292.929047 149.021042,292.551392 
	C147.359787,287.736450 145.753189,283.299164 144.146591,278.861908 
z"/>
<path fill="#7BD144" opacity="1.000000" stroke="none" 
	d="
M153.848145,251.057281 
	C153.999435,251.165451 154.004257,251.364731 154.017273,251.863678 
	C154.025482,252.163361 153.613098,252.284607 153.402298,252.329773 
	C153.361557,251.966095 153.531601,251.557236 153.848145,251.057281 
z"/>
<path fill="#5ABE1B" opacity="1.000000" stroke="none" 
	d="
M276.883728,386.844116 
	C269.306519,392.272247 261.474243,397.272766 254.028351,402.794342 
	C235.169205,416.779449 214.016663,424.168518 190.710205,426.108856 
	C169.161026,427.902863 148.751785,422.725708 128.473312,416.604553 
	C121.944199,414.633667 115.527054,412.251740 109.165390,409.782928 
	C105.929268,408.527100 102.683083,407.007507 99.871460,405.003723 
	C92.454895,399.718170 91.671364,395.165771 96.905769,387.741547 
	C100.926369,382.038971 105.911446,376.950928 109.422104,370.975342 
	C112.122704,366.378601 113.196480,360.826050 115.013931,355.273376 
	C116.159050,355.570404 117.283920,356.292664 118.827286,357.380676 
	C119.521187,358.402557 119.796585,359.058716 120.045525,360.159973 
	C119.310081,370.838470 114.093498,379.029327 108.496338,387.219360 
	C103.092354,395.126678 104.048004,398.917664 112.787735,402.757751 
	C130.822403,410.681854 149.677811,416.179504 169.195190,418.902130 
	C189.020233,421.667694 208.270020,418.510681 226.984329,411.697021 
	C238.784454,407.400757 249.471771,401.199738 259.314270,392.862854 
	C262.665009,390.994720 265.565430,388.939789 268.774139,387.654297 
	C271.201172,386.681946 274.021820,386.692108 276.667267,386.265015 
	C276.667267,386.265015 276.804596,386.653748 276.883728,386.844116 
z"/>
<path fill="#47B501" opacity="1.000000" stroke="none" 
	d="
M120.071983,359.714844 
	C119.796585,359.058716 119.521187,358.402557 119.133957,357.512817 
	C119.669350,350.438232 120.316574,343.597260 120.952110,336.311707 
	C120.940422,335.867065 120.984291,335.930145 121.269699,335.876770 
	C122.355499,334.928345 123.155891,334.033264 124.248062,332.954346 
	C128.362885,330.165955 132.185928,327.561401 136.320160,324.813599 
	C142.420761,321.778900 148.210175,318.887482 153.886108,316.322327 
	C150.725128,319.611633 148.095322,323.273865 144.544830,325.394928 
	C136.677017,330.095062 133.397476,337.481201 131.152954,345.620270 
	C128.915054,353.735382 126.791893,361.956696 134.033707,368.990204 
	C134.577576,369.518433 134.682571,370.498535 134.670166,371.128845 
	C129.589813,367.231049 124.830902,363.472931 120.071983,359.714844 
z"/>
<path fill="#7BD144" opacity="1.000000" stroke="none" 
	d="
M229.352722,199.812607 
	C227.029816,198.396881 224.706909,196.981171 222.166992,195.304504 
	C223.029907,195.023941 224.109848,195.004318 225.858185,195.188309 
	C228.531006,195.370590 230.806503,195.967728 232.495712,195.227341 
	C243.253998,190.511826 250.057129,181.886169 255.148514,171.620255 
	C261.281097,159.254913 267.239960,146.788498 273.852112,134.681549 
	C277.736115,127.569809 282.382721,120.789825 287.373962,114.397568 
	C290.657715,110.192101 293.712494,110.556778 297.593597,114.180023 
	C298.802185,115.308304 299.976746,116.544258 300.877533,117.920341 
	C315.335541,140.006439 327.055267,163.438339 336.380127,188.164459 
	C339.503326,196.445999 344.005707,204.351624 348.864105,211.784302 
	C352.150299,216.811752 356.533325,221.529922 363.070251,222.938568 
	C365.794128,223.175095 368.517975,223.411621 371.600800,223.807068 
	C364.264496,225.262909 356.569275,226.559830 348.074585,227.987854 
	C338.965851,230.336838 330.500122,232.103165 322.395447,234.911530 
	C315.575409,237.274719 309.175446,240.850113 302.368347,243.959442 
	C301.759857,244.286896 301.372528,244.543808 300.768463,244.898560 
	C300.551697,244.996414 300.140564,245.235611 299.833130,245.368912 
	C297.054504,247.240112 294.583344,248.978012 291.771301,250.561722 
	C290.072998,248.755875 288.779175,247.046722 287.347412,245.462204 
	C279.955627,237.281647 272.528503,229.132980 264.900330,220.729385 
	C263.806061,219.842178 262.925140,219.198761 261.928772,218.427368 
	C261.638763,218.144775 261.441254,218.029480 260.985779,217.723389 
	C259.850281,216.860458 258.949829,216.227646 257.869080,215.408386 
	C256.946198,214.794907 256.203613,214.367889 255.208710,213.710098 
	C253.975647,212.963242 252.994919,212.447144 252.055511,211.962402 
	C252.096848,211.993774 252.171356,211.921555 251.947937,211.663315 
	C244.790237,207.635727 237.855988,203.866379 230.672134,200.032516 
	C230.251205,199.954208 230.079880,199.940430 229.773087,199.881195 
	C229.637604,199.835724 229.352722,199.812607 229.352722,199.812607 
z"/>
<path fill="#3CA908" opacity="1.000000" stroke="none" 
	d="
M302.589508,243.888901 
	C309.175446,240.850113 315.575409,237.274719 322.395447,234.911530 
	C330.500122,232.103165 338.965851,230.336838 347.684021,228.104004 
	C348.879883,228.309723 349.744843,228.863663 350.441986,228.700531 
	C359.198975,226.651077 366.897858,229.327103 374.559570,233.893860 
	C374.935974,235.033981 374.968567,236.118561 374.993988,238.028442 
	C374.964050,240.535583 374.941254,242.217422 374.823486,244.170380 
	C374.497131,244.962189 374.265778,245.482880 373.711853,245.882416 
	C372.277496,245.038925 371.135925,244.358307 370.058502,243.587921 
	C356.331726,233.772812 341.835052,230.143356 325.445068,236.840317 
	C318.093842,239.844025 310.223999,241.578491 302.589508,243.888901 
z"/>
<path fill="#3CA908" opacity="1.000000" stroke="none" 
	d="
M276.969086,386.029663 
	C274.021820,386.692108 271.201172,386.681946 268.774139,387.654297 
	C265.565430,388.939789 262.665009,390.994720 258.966492,392.961060 
	C255.548721,394.122101 252.796478,395.040955 250.212006,395.672852 
	C255.173904,392.465790 259.947632,389.511536 264.769562,386.638092 
	C267.815033,384.823212 267.855713,382.999542 265.131653,380.688721 
	C271.258301,376.472351 277.240723,372.550995 283.266663,368.697693 
	C283.757263,368.383942 284.544037,368.508179 285.195526,368.475433 
	C288.058960,368.331482 290.923248,368.204712 293.814453,368.437347 
	C293.896698,369.534332 293.951660,370.265594 293.986694,371.417542 
	C293.950043,373.247955 293.933289,374.657684 293.916565,376.067444 
	C293.665558,376.557251 293.414551,377.047028 293.039124,377.783752 
	C287.700073,380.618530 282.485474,383.206451 276.969086,386.029663 
z"/>
<path fill="#5ABE1B" opacity="1.000000" stroke="none" 
	d="
M294.273132,375.957336 
	C293.933289,374.657684 293.950043,373.247955 294.328674,371.319366 
	C302.905640,367.661346 311.017395,364.210602 319.356262,361.444611 
	C339.780243,354.669922 357.820068,344.439056 372.447540,328.239929 
	C382.299957,317.328949 389.353088,304.796356 395.945312,291.921783 
	C400.565613,282.898438 404.762634,273.641418 408.758514,264.321472 
	C411.338379,258.304260 409.300415,254.876480 402.865662,253.328629 
	C400.123535,252.669022 397.149231,252.762711 394.539246,251.807205 
	C387.920959,249.384308 381.449005,246.561768 374.918457,243.899246 
	C374.941254,242.217422 374.964050,240.535583 375.004608,238.434204 
	C384.371887,242.236023 394.119781,244.859238 404.396027,245.433914 
	C405.714783,245.507660 407.022552,245.883362 408.322113,246.177872 
	C418.017944,248.374969 421.493713,254.298981 417.432892,263.592072 
	C411.237518,277.770233 405.235596,292.165894 397.456329,305.478638 
	C390.716125,317.013092 382.335419,327.813934 373.384674,337.775299 
	C361.907440,350.548340 346.484680,357.762756 330.532288,363.535858 
	C318.637451,367.840515 306.602356,371.757568 294.273132,375.957336 
z"/>
<path fill="#76CE3E" opacity="1.000000" stroke="none" 
	d="
M362.994934,222.593628 
	C356.533325,221.529922 352.150299,216.811752 348.864105,211.784302 
	C344.005707,204.351624 339.503326,196.445999 336.380127,188.164459 
	C327.055267,163.438339 315.335541,140.006439 300.877533,117.920341 
	C299.976746,116.544258 298.802185,115.308304 297.593597,114.180023 
	C293.712494,110.556778 290.657715,110.192101 287.373962,114.397568 
	C282.382721,120.789825 277.736115,127.569809 273.852112,134.681549 
	C267.239960,146.788498 261.281097,159.254913 255.148514,171.620255 
	C250.057129,181.886169 243.253998,190.511826 232.495712,195.227341 
	C230.806503,195.967728 228.531006,195.370590 226.263275,195.191345 
	C238.025513,187.949432 245.026840,177.018494 251.086212,164.774261 
	C260.082733,146.594879 269.670593,128.648193 280.093597,111.253723 
	C288.347107,97.479851 296.471161,97.852676 305.181152,111.328712 
	C320.333588,134.772537 333.247253,159.329041 341.911804,186.004883 
	C345.838165,198.093063 350.631958,209.814133 360.739380,218.415970 
	C361.791412,219.311310 362.208099,220.953201 362.994934,222.593628 
z"/>
<path fill="#7BD144" opacity="1.000000" stroke="none" 
	d="
M221.698715,194.883209 
	C221.080551,194.848480 220.142303,194.657639 218.903076,194.255402 
	C219.527588,194.271683 220.453125,194.499390 221.698715,194.883209 
z"/>
<path fill="#47B010" opacity="1.000000" stroke="none" 
	d="
M230.921738,200.097031 
	C237.855988,203.866379 244.790237,207.635727 251.501221,211.676422 
	C249.782455,211.877625 248.144241,212.183121 246.814178,211.677704 
	C236.530106,207.769684 227.589279,211.688019 218.652603,216.150604 
	C214.010559,218.468613 211.700455,221.722778 211.885574,227.198639 
	C212.074814,232.795792 211.308701,238.425247 210.960800,244.040573 
	C210.733109,235.012238 210.505417,225.983887 210.288391,216.487518 
	C210.698334,214.009750 211.097595,212.000000 211.510056,209.649841 
	C217.225555,206.248123 222.927872,203.186829 228.991455,199.969055 
	C229.352722,199.812607 229.637604,199.835724 229.898499,199.920685 
	C230.408310,200.075424 230.662430,200.105896 230.921738,200.097031 
z"/>
<path fill="#52BA14" opacity="1.000000" stroke="none" 
	d="
M210.942780,244.489746 
	C211.308701,238.425247 212.074814,232.795792 211.885574,227.198639 
	C211.700455,221.722778 214.010559,218.468613 218.652603,216.150604 
	C227.589279,211.688019 236.530106,207.769684 246.814178,211.677704 
	C248.144241,212.183121 249.782455,211.877625 251.724640,211.934662 
	C252.171356,211.921555 252.096848,211.993774 252.257965,212.235046 
	C253.433075,212.964508 254.447052,213.452682 255.461029,213.940857 
	C256.203613,214.367889 256.946198,214.794907 258.035248,215.716919 
	C259.328064,216.792435 260.274445,217.372971 261.220795,217.953491 
	C261.441254,218.029480 261.638763,218.144775 262.088745,218.737381 
	C263.280701,219.774643 264.197205,220.373917 265.113708,220.973190 
	C272.528503,229.132980 279.955627,237.281647 287.347412,245.462204 
	C288.779175,247.046722 290.072998,248.755875 291.768738,250.663818 
	C292.107056,250.920120 292.089417,251.125122 291.718597,251.118622 
	C290.608948,251.104477 289.870087,251.096848 288.862305,250.837982 
	C287.740845,250.086075 286.943634,249.310120 286.027466,249.125946 
	C272.045471,246.315109 259.951141,239.830505 248.700653,231.169144 
	C244.615433,228.024078 239.317001,226.082901 233.657623,227.990265 
	C224.083023,231.217178 213.393723,245.644897 212.890411,256.231445 
	C212.640366,258.381317 212.117310,260.289398 212.545319,261.952728 
	C215.844376,274.773804 219.154007,287.597809 222.837570,300.311584 
	C224.359161,305.563385 224.469696,305.937653 218.857697,305.976562 
	C211.886353,306.024902 204.901138,305.712616 197.945602,306.047699 
	C185.329056,306.655396 172.795746,307.974457 160.745651,312.980286 
	C160.511795,312.986420 160.044144,313.000885 159.895523,312.689270 
	C156.444702,305.943817 153.142487,299.509979 149.840302,293.076172 
	C150.825562,291.380920 152.245224,289.799652 152.724930,287.971710 
	C155.644394,276.847107 161.444916,267.687836 170.743179,260.868530 
	C172.299088,259.727386 174.166718,258.527405 175.997360,258.325470 
	C185.838577,257.240204 195.714127,256.467072 205.575912,255.565445 
	C206.224808,255.506134 206.857971,255.274597 207.841583,254.957458 
	C209.131866,253.435745 210.529892,252.194016 210.910019,250.694275 
	C211.367233,248.890457 210.958557,246.867172 210.942780,244.489746 
z"/>
<path fill="#76CE3E" opacity="1.000000" stroke="none" 
	d="
M136.008972,324.956879 
	C132.185928,327.561401 128.362885,330.165955 124.023270,332.946960 
	C123.506699,333.123444 123.058556,333.164307 123.058556,333.164307 
	C124.243019,325.170929 125.440262,317.179413 126.603798,309.182983 
	C126.932533,306.923737 127.139687,304.647034 127.446991,302.384338 
	C127.621681,301.098114 127.473724,299.505371 128.176483,298.595612 
	C133.210205,292.079224 138.425232,285.702881 143.864624,279.071960 
	C145.753189,283.299164 147.359787,287.736450 148.877777,292.895264 
	C148.671005,294.427734 148.313766,295.288452 148.470932,296.041901 
	C150.465866,305.604431 146.568115,312.646667 139.433868,318.650513 
	C137.729935,320.084473 137.121368,322.820007 136.008972,324.956879 
z"/>
<path fill="#32A204" opacity="1.000000" stroke="none" 
	d="
M123.013954,333.118042 
	C123.058556,333.164307 123.506699,333.123444 123.731491,333.130798 
	C123.155891,334.033264 122.355499,334.928345 121.239746,335.900879 
	C121.201569,335.589722 121.478767,335.201141 122.106438,334.407471 
	C122.654480,333.658691 122.852051,333.315002 123.049622,332.971283 
	C123.049614,332.971283 122.969353,333.071747 123.013954,333.118042 
z"/>
<path fill="#76CE3E" opacity="1.000000" stroke="none" 
	d="
M122.874603,333.208496 
	C122.852051,333.315002 122.654480,333.658691 122.234650,334.205872 
	C122.241463,334.088135 122.470520,333.766907 122.874603,333.208496 
z"/>
<path fill="#7BD144" opacity="1.000000" stroke="none" 
	d="
M136.320160,324.813599 
	C137.121368,322.820007 137.729935,320.084473 139.433868,318.650513 
	C146.568115,312.646667 150.465866,305.604431 148.470932,296.041901 
	C148.313766,295.288452 148.671005,294.427734 148.932449,293.272949 
	C149.075714,292.929047 149.457870,293.005646 149.649078,293.040894 
	C153.142487,299.509979 156.444702,305.943817 159.859879,312.821991 
	C159.972855,313.266357 159.966034,313.540894 159.645081,313.650360 
	C158.503647,314.120636 157.683167,314.481415 156.556976,314.901825 
	C155.500717,315.306274 154.750153,315.651154 153.999588,315.996033 
	C148.210175,318.887482 142.420761,321.778900 136.320160,324.813599 
z"/>
<path fill="#62C320" opacity="1.000000" stroke="none" 
	d="
M250.044235,395.959839 
	C252.796478,395.040955 255.548721,394.122101 258.648743,393.105011 
	C249.471771,401.199738 238.784454,407.400757 226.984329,411.697021 
	C208.270020,418.510681 189.020233,421.667694 169.195190,418.902130 
	C149.677811,416.179504 130.822403,410.681854 112.787735,402.757751 
	C104.048004,398.917664 103.092354,395.126678 108.496338,387.219360 
	C114.093498,379.029327 119.310081,370.838470 120.045525,360.159973 
	C124.830902,363.472931 129.589813,367.231049 134.870056,371.369446 
	C169.676605,398.442596 208.039413,405.825073 250.044235,395.959839 
z"/>
<path fill="#4BB706" opacity="1.000000" stroke="none" 
	d="
M250.212006,395.672852 
	C208.039413,405.825073 169.676605,398.442596 135.191483,371.509155 
	C134.682571,370.498535 134.577576,369.518433 134.033707,368.990204 
	C126.791893,361.956696 128.915054,353.735382 131.152954,345.620270 
	C133.397476,337.481201 136.677017,330.095062 144.544830,325.394928 
	C148.095322,323.273865 150.725128,319.611633 153.886108,316.322327 
	C154.750153,315.651154 155.500717,315.306274 156.810211,314.987610 
	C158.234756,314.522827 159.100388,314.031860 159.966034,313.540894 
	C159.966034,313.540894 159.972855,313.266357 160.008499,313.133606 
	C160.044144,313.000885 160.511795,312.986420 160.845612,313.322357 
	C162.725250,316.202667 163.925369,319.057831 165.881317,321.233490 
	C171.884567,327.911072 177.822815,334.715271 184.429031,340.768890 
	C199.875793,354.923553 217.326569,365.956390 238.233795,369.740448 
	C248.210968,371.546265 257.749146,373.233978 264.998718,381.001282 
	C267.855713,382.999542 267.815033,384.823212 264.769562,386.638092 
	C259.947632,389.511536 255.173904,392.465790 250.212006,395.672852 
z"/>
<path fill="#4BB706" opacity="1.000000" stroke="none" 
	d="
M292.089417,251.125122 
	C292.089417,251.125122 292.107056,250.920120 292.109619,250.818024 
	C294.583344,248.978012 297.054504,247.240112 299.946960,245.333237 
	C300.593048,245.076721 300.798737,244.955536 300.985229,244.800720 
	C301.372528,244.543808 301.759857,244.286896 302.368347,243.959442 
	C310.223999,241.578491 318.093842,239.844025 325.445068,236.840317 
	C341.835052,230.143356 356.331726,233.772812 370.058502,243.587921 
	C371.135925,244.358307 372.277496,245.038925 373.717773,246.326355 
	C373.364990,251.989868 372.763916,257.100555 371.988739,262.184692 
	C368.278137,286.520538 360.853149,309.473358 345.732727,329.285583 
	C333.683990,345.072998 318.351257,355.773102 298.223602,357.703583 
	C301.550598,355.919006 304.824677,354.643433 307.767883,352.830658 
	C313.549683,349.269470 319.893280,346.180420 324.691132,341.538574 
	C344.479645,322.393585 357.271820,299.178711 362.873810,272.123322 
	C365.204376,260.867523 364.616333,260.329865 354.657959,255.233704 
	C346.240051,250.925842 338.158417,250.311081 329.205597,253.584213 
	C322.850861,255.907501 315.985077,256.886963 309.300659,258.234467 
	C305.246857,259.051636 301.104034,259.427246 296.789673,259.735596 
	C295.081879,256.688354 293.585663,253.906738 292.089417,251.125122 
z"/>
<path fill="#47B010" opacity="1.000000" stroke="none" 
	d="
M264.900330,220.729385 
	C264.197205,220.373917 263.280701,219.774643 262.204224,218.865356 
	C262.925140,219.198761 263.806061,219.842178 264.900330,220.729385 
z"/>
<path fill="#47B010" opacity="1.000000" stroke="none" 
	d="
M260.985779,217.723389 
	C260.274445,217.372971 259.328064,216.792435 258.215546,215.903381 
	C258.949829,216.227646 259.850281,216.860458 260.985779,217.723389 
z"/>
<path fill="#47B010" opacity="1.000000" stroke="none" 
	d="
M255.208710,213.710098 
	C254.447052,213.452682 253.433075,212.964508 252.216629,212.203674 
	C252.994919,212.447144 253.975647,212.963242 255.208710,213.710098 
z"/>
<path fill="#3CA908" opacity="1.000000" stroke="none" 
	d="
M300.768463,244.898560 
	C300.798737,244.955536 300.593048,245.076721 300.254395,245.199936 
	C300.140564,245.235611 300.551697,244.996414 300.768463,244.898560 
z"/>
<path fill="#3CA908" opacity="1.000000" stroke="none" 
	d="
M230.672134,200.032516 
	C230.662430,200.105896 230.408310,200.075424 230.033966,199.966156 
	C230.079880,199.940430 230.251205,199.954208 230.672134,200.032516 
z"/>
<path fill="#62C320" opacity="1.000000" stroke="none" 
	d="
M298.021118,357.969727 
	C318.351257,355.773102 333.683990,345.072998 345.732727,329.285583 
	C360.853149,309.473358 368.278137,286.520538 371.988739,262.184692 
	C372.763916,257.100555 373.364990,251.989868 374.040344,246.447510 
	C374.265778,245.482880 374.497131,244.962189 374.823486,244.170380 
	C381.449005,246.561768 387.920959,249.384308 394.539246,251.807205 
	C397.149231,252.762711 400.123535,252.669022 402.865662,253.328629 
	C409.300415,254.876480 411.338379,258.304260 408.758514,264.321472 
	C404.762634,273.641418 400.565613,282.898438 395.945312,291.921783 
	C389.353088,304.796356 382.299957,317.328949 372.447540,328.239929 
	C357.820068,344.439056 339.780243,354.669922 319.356262,361.444611 
	C311.017395,364.210602 302.905640,367.661346 294.348572,370.898712 
	C293.951660,370.265594 293.896698,369.534332 293.830994,368.035095 
	C293.873993,364.159088 293.927734,361.051056 294.384888,357.961243 
	C295.865936,357.976227 296.943542,357.972992 298.021118,357.969727 
z"/>
<path fill="#47B501" opacity="1.000000" stroke="none" 
	d="
M293.981445,357.943024 
	C293.927734,361.051056 293.873993,364.159088 293.803772,367.669373 
	C290.923248,368.204712 288.058960,368.331482 285.195526,368.475433 
	C284.544037,368.508179 283.757263,368.383942 283.266663,368.697693 
	C277.240723,372.550995 271.258301,376.472351 265.131653,380.688721 
	C257.749146,373.233978 248.210968,371.546265 238.233795,369.740448 
	C217.326569,365.956390 199.875793,354.923553 184.429031,340.768890 
	C177.822815,334.715271 171.884567,327.911072 165.881317,321.233490 
	C163.925369,319.057831 162.725250,316.202667 161.079468,313.316223 
	C172.795746,307.974457 185.329056,306.655396 197.945602,306.047699 
	C204.901138,305.712616 211.886353,306.024902 218.857697,305.976562 
	C224.469696,305.937653 224.359161,305.563385 222.837570,300.311584 
	C219.154007,287.597809 215.844376,274.773804 212.545319,261.952728 
	C212.117310,260.289398 212.640366,258.381317 213.247101,256.338867 
	C228.753555,260.912262 243.043732,267.206604 255.622894,276.800110 
	C259.631805,279.857513 261.984650,279.089081 265.115692,275.524567 
	C270.144806,269.799164 275.791199,264.616608 281.166504,259.194427 
	C283.833221,256.504425 286.477051,253.791672 289.131256,251.089233 
	C289.870087,251.096848 290.608948,251.104477 291.718597,251.118622 
	C293.585663,253.906738 295.081879,256.688354 296.945312,260.047302 
	C304.779480,274.685272 310.233215,289.418671 311.521454,305.403870 
	C312.577667,318.509827 311.398315,331.358917 304.478943,342.941559 
	C301.357056,348.167419 297.503174,352.956024 293.981445,357.943024 
z"/>
<path fill="#5ABE1B" opacity="1.000000" stroke="none" 
	d="
M288.862305,250.837982 
	C286.477051,253.791672 283.833221,256.504425 281.166504,259.194427 
	C275.791199,264.616608 270.144806,269.799164 265.115692,275.524567 
	C261.984650,279.089081 259.631805,279.857513 255.622894,276.800110 
	C243.043732,267.206604 228.753555,260.912262 213.414642,255.983704 
	C213.393723,245.644897 224.083023,231.217178 233.657623,227.990265 
	C239.317001,226.082901 244.615433,228.024078 248.700653,231.169144 
	C259.951141,239.830505 272.045471,246.315109 286.027466,249.125946 
	C286.943634,249.310120 287.740845,250.086075 288.862305,250.837982 
z"/>
<path fill="#47B501" opacity="1.000000" stroke="none" 
	d="
M159.645081,313.650360 
	C159.100388,314.031860 158.234756,314.522827 157.115906,314.928040 
	C157.683167,314.481415 158.503647,314.120636 159.645081,313.650360 
z"/>
<path fill="#50BC09" opacity="1.000000" stroke="none" 
	d="
M294.384888,357.961243 
	C297.503174,352.956024 301.357056,348.167419 304.478943,342.941559 
	C311.398315,331.358917 312.577667,318.509827 311.521454,305.403870 
	C310.233215,289.418671 304.779480,274.685272 297.156860,260.312927 
	C301.104034,259.427246 305.246857,259.051636 309.300659,258.234467 
	C315.985077,256.886963 322.850861,255.907501 329.205597,253.584213 
	C338.158417,250.311081 346.240051,250.925842 354.657959,255.233704 
	C364.616333,260.329865 365.204376,260.867523 362.873810,272.123322 
	C357.271820,299.178711 344.479645,322.393585 324.691132,341.538574 
	C319.893280,346.180420 313.549683,349.269470 307.767883,352.830658 
	C304.824677,354.643433 301.550598,355.919006 298.223602,357.703583 
	C296.943542,357.972992 295.865936,357.976227 294.384888,357.961243 
z"/>
</svg>